<mxfile host="Electron" modified="2023-10-11T07:03:06.920Z" agent="Mozilla/5.0 (Windows NT 10.0; Win64; x64) AppleWebKit/537.36 (KHTML, like Gecko) draw.io/22.0.2 Chrome/114.0.5735.289 Electron/25.8.4 Safari/537.36" etag="4bbR9Q-O_XUo_6ydqjVF" version="22.0.2" type="device">
  <diagram name="Page-1" id="6C6t73wL5U_exs-AvIqG">
    <mxGraphModel dx="2018" dy="1674" grid="1" gridSize="10" guides="1" tooltips="1" connect="1" arrows="1" fold="1" page="1" pageScale="1" pageWidth="850" pageHeight="1100" math="0" shadow="0">
      <root>
        <mxCell id="0" />
        <mxCell id="1" parent="0" />
        <mxCell id="EvVna4faZcCAItMm56S3-195" value="" style="rounded=0;whiteSpace=wrap;html=1;" parent="1" vertex="1">
          <mxGeometry x="1440" y="602.5" width="240" height="1080" as="geometry" />
        </mxCell>
        <mxCell id="EvVna4faZcCAItMm56S3-196" value="1" style="whiteSpace=wrap;html=1;aspect=fixed;" parent="1" vertex="1">
          <mxGeometry x="1410" y="672.5" width="30" height="30" as="geometry" />
        </mxCell>
        <mxCell id="EvVna4faZcCAItMm56S3-197" value="2" style="whiteSpace=wrap;html=1;aspect=fixed;" parent="1" vertex="1">
          <mxGeometry x="1410" y="722.5" width="30" height="30" as="geometry" />
        </mxCell>
        <mxCell id="EvVna4faZcCAItMm56S3-198" value="3" style="whiteSpace=wrap;html=1;aspect=fixed;" parent="1" vertex="1">
          <mxGeometry x="1410" y="772.5" width="30" height="30" as="geometry" />
        </mxCell>
        <mxCell id="EvVna4faZcCAItMm56S3-199" value="4" style="whiteSpace=wrap;html=1;aspect=fixed;" parent="1" vertex="1">
          <mxGeometry x="1410" y="822.5" width="30" height="30" as="geometry" />
        </mxCell>
        <mxCell id="EvVna4faZcCAItMm56S3-200" value="5" style="whiteSpace=wrap;html=1;aspect=fixed;" parent="1" vertex="1">
          <mxGeometry x="1410" y="872.5" width="30" height="30" as="geometry" />
        </mxCell>
        <mxCell id="EvVna4faZcCAItMm56S3-201" value="6" style="whiteSpace=wrap;html=1;aspect=fixed;" parent="1" vertex="1">
          <mxGeometry x="1410" y="922.5" width="30" height="30" as="geometry" />
        </mxCell>
        <mxCell id="EvVna4faZcCAItMm56S3-202" value="7" style="whiteSpace=wrap;html=1;aspect=fixed;" parent="1" vertex="1">
          <mxGeometry x="1410" y="972.5" width="30" height="30" as="geometry" />
        </mxCell>
        <mxCell id="EvVna4faZcCAItMm56S3-203" value="8" style="whiteSpace=wrap;html=1;aspect=fixed;" parent="1" vertex="1">
          <mxGeometry x="1410" y="1022.5" width="30" height="30" as="geometry" />
        </mxCell>
        <mxCell id="EvVna4faZcCAItMm56S3-204" value="9" style="whiteSpace=wrap;html=1;aspect=fixed;" parent="1" vertex="1">
          <mxGeometry x="1410" y="1072.5" width="30" height="30" as="geometry" />
        </mxCell>
        <mxCell id="EvVna4faZcCAItMm56S3-205" value="10" style="whiteSpace=wrap;html=1;aspect=fixed;" parent="1" vertex="1">
          <mxGeometry x="1410" y="1122.5" width="30" height="30" as="geometry" />
        </mxCell>
        <mxCell id="EvVna4faZcCAItMm56S3-206" value="11" style="whiteSpace=wrap;html=1;aspect=fixed;" parent="1" vertex="1">
          <mxGeometry x="1410" y="1172.5" width="30" height="30" as="geometry" />
        </mxCell>
        <mxCell id="EvVna4faZcCAItMm56S3-207" value="12" style="whiteSpace=wrap;html=1;aspect=fixed;" parent="1" vertex="1">
          <mxGeometry x="1410" y="1222.5" width="30" height="30" as="geometry" />
        </mxCell>
        <mxCell id="EvVna4faZcCAItMm56S3-208" value="13" style="whiteSpace=wrap;html=1;aspect=fixed;" parent="1" vertex="1">
          <mxGeometry x="1410" y="1272.5" width="30" height="30" as="geometry" />
        </mxCell>
        <mxCell id="EvVna4faZcCAItMm56S3-209" value="14" style="whiteSpace=wrap;html=1;aspect=fixed;" parent="1" vertex="1">
          <mxGeometry x="1410" y="1322.5" width="30" height="30" as="geometry" />
        </mxCell>
        <mxCell id="EvVna4faZcCAItMm56S3-210" value="15" style="whiteSpace=wrap;html=1;aspect=fixed;" parent="1" vertex="1">
          <mxGeometry x="1410" y="1372.5" width="30" height="30" as="geometry" />
        </mxCell>
        <mxCell id="EvVna4faZcCAItMm56S3-211" value="16" style="whiteSpace=wrap;html=1;aspect=fixed;" parent="1" vertex="1">
          <mxGeometry x="1410" y="1422.5" width="30" height="30" as="geometry" />
        </mxCell>
        <mxCell id="EvVna4faZcCAItMm56S3-212" value="17" style="whiteSpace=wrap;html=1;aspect=fixed;" parent="1" vertex="1">
          <mxGeometry x="1410" y="1472.5" width="30" height="30" as="geometry" />
        </mxCell>
        <mxCell id="EvVna4faZcCAItMm56S3-213" value="18" style="whiteSpace=wrap;html=1;aspect=fixed;" parent="1" vertex="1">
          <mxGeometry x="1410" y="1522.5" width="30" height="30" as="geometry" />
        </mxCell>
        <mxCell id="EvVna4faZcCAItMm56S3-214" value="19" style="whiteSpace=wrap;html=1;aspect=fixed;" parent="1" vertex="1">
          <mxGeometry x="1410" y="1572.5" width="30" height="30" as="geometry" />
        </mxCell>
        <mxCell id="EvVna4faZcCAItMm56S3-215" value="20" style="whiteSpace=wrap;html=1;aspect=fixed;" parent="1" vertex="1">
          <mxGeometry x="1410" y="1622.5" width="30" height="30" as="geometry" />
        </mxCell>
        <mxCell id="EvVna4faZcCAItMm56S3-216" value="40" style="whiteSpace=wrap;html=1;aspect=fixed;" parent="1" vertex="1">
          <mxGeometry x="1680" y="672.5" width="30" height="30" as="geometry" />
        </mxCell>
        <mxCell id="EvVna4faZcCAItMm56S3-217" value="39" style="whiteSpace=wrap;html=1;aspect=fixed;" parent="1" vertex="1">
          <mxGeometry x="1680" y="722.5" width="30" height="30" as="geometry" />
        </mxCell>
        <mxCell id="EvVna4faZcCAItMm56S3-218" value="38" style="whiteSpace=wrap;html=1;aspect=fixed;" parent="1" vertex="1">
          <mxGeometry x="1680" y="772.5" width="30" height="30" as="geometry" />
        </mxCell>
        <mxCell id="EvVna4faZcCAItMm56S3-219" value="37" style="whiteSpace=wrap;html=1;aspect=fixed;" parent="1" vertex="1">
          <mxGeometry x="1680" y="822.5" width="30" height="30" as="geometry" />
        </mxCell>
        <mxCell id="EvVna4faZcCAItMm56S3-220" value="36" style="whiteSpace=wrap;html=1;aspect=fixed;" parent="1" vertex="1">
          <mxGeometry x="1680" y="872.5" width="30" height="30" as="geometry" />
        </mxCell>
        <mxCell id="EvVna4faZcCAItMm56S3-221" value="35" style="whiteSpace=wrap;html=1;aspect=fixed;" parent="1" vertex="1">
          <mxGeometry x="1680" y="922.5" width="30" height="30" as="geometry" />
        </mxCell>
        <mxCell id="EvVna4faZcCAItMm56S3-222" value="34" style="whiteSpace=wrap;html=1;aspect=fixed;" parent="1" vertex="1">
          <mxGeometry x="1680" y="972.5" width="30" height="30" as="geometry" />
        </mxCell>
        <mxCell id="EvVna4faZcCAItMm56S3-223" value="33" style="whiteSpace=wrap;html=1;aspect=fixed;" parent="1" vertex="1">
          <mxGeometry x="1680" y="1022.5" width="30" height="30" as="geometry" />
        </mxCell>
        <mxCell id="EvVna4faZcCAItMm56S3-224" value="32" style="whiteSpace=wrap;html=1;aspect=fixed;" parent="1" vertex="1">
          <mxGeometry x="1680" y="1072.5" width="30" height="30" as="geometry" />
        </mxCell>
        <mxCell id="EvVna4faZcCAItMm56S3-225" value="31" style="whiteSpace=wrap;html=1;aspect=fixed;" parent="1" vertex="1">
          <mxGeometry x="1680" y="1122.5" width="30" height="30" as="geometry" />
        </mxCell>
        <mxCell id="EvVna4faZcCAItMm56S3-226" value="30" style="whiteSpace=wrap;html=1;aspect=fixed;" parent="1" vertex="1">
          <mxGeometry x="1680" y="1172.5" width="30" height="30" as="geometry" />
        </mxCell>
        <mxCell id="EvVna4faZcCAItMm56S3-227" value="29" style="whiteSpace=wrap;html=1;aspect=fixed;" parent="1" vertex="1">
          <mxGeometry x="1680" y="1222.5" width="30" height="30" as="geometry" />
        </mxCell>
        <mxCell id="EvVna4faZcCAItMm56S3-228" value="28" style="whiteSpace=wrap;html=1;aspect=fixed;" parent="1" vertex="1">
          <mxGeometry x="1680" y="1272.5" width="30" height="30" as="geometry" />
        </mxCell>
        <mxCell id="EvVna4faZcCAItMm56S3-229" value="27" style="whiteSpace=wrap;html=1;aspect=fixed;" parent="1" vertex="1">
          <mxGeometry x="1680" y="1322.5" width="30" height="30" as="geometry" />
        </mxCell>
        <mxCell id="EvVna4faZcCAItMm56S3-230" value="26" style="whiteSpace=wrap;html=1;aspect=fixed;" parent="1" vertex="1">
          <mxGeometry x="1680" y="1372.5" width="30" height="30" as="geometry" />
        </mxCell>
        <mxCell id="EvVna4faZcCAItMm56S3-231" value="25" style="whiteSpace=wrap;html=1;aspect=fixed;" parent="1" vertex="1">
          <mxGeometry x="1680" y="1422.5" width="30" height="30" as="geometry" />
        </mxCell>
        <mxCell id="EvVna4faZcCAItMm56S3-232" value="24" style="whiteSpace=wrap;html=1;aspect=fixed;" parent="1" vertex="1">
          <mxGeometry x="1680" y="1472.5" width="30" height="30" as="geometry" />
        </mxCell>
        <mxCell id="EvVna4faZcCAItMm56S3-233" value="23" style="whiteSpace=wrap;html=1;aspect=fixed;" parent="1" vertex="1">
          <mxGeometry x="1680" y="1522.5" width="30" height="30" as="geometry" />
        </mxCell>
        <mxCell id="EvVna4faZcCAItMm56S3-234" value="22" style="whiteSpace=wrap;html=1;aspect=fixed;" parent="1" vertex="1">
          <mxGeometry x="1680" y="1572.5" width="30" height="30" as="geometry" />
        </mxCell>
        <mxCell id="EvVna4faZcCAItMm56S3-235" value="21" style="whiteSpace=wrap;html=1;aspect=fixed;" parent="1" vertex="1">
          <mxGeometry x="1680" y="1622.5" width="30" height="30" as="geometry" />
        </mxCell>
        <mxCell id="EvVna4faZcCAItMm56S3-236" value="PB0 (XCK/T0)" style="text;html=1;strokeColor=none;fillColor=none;align=left;verticalAlign=middle;whiteSpace=wrap;rounded=0;" parent="1" vertex="1">
          <mxGeometry x="1440" y="672.5" width="100" height="30" as="geometry" />
        </mxCell>
        <mxCell id="EvVna4faZcCAItMm56S3-237" value="&lt;div align=&quot;right&quot;&gt;PA0 (ADC0)&lt;/div&gt;" style="text;html=1;strokeColor=none;fillColor=none;align=right;verticalAlign=middle;whiteSpace=wrap;rounded=0;" parent="1" vertex="1">
          <mxGeometry x="1580" y="672.5" width="100" height="30" as="geometry" />
        </mxCell>
        <mxCell id="EvVna4faZcCAItMm56S3-238" value="PB1 (T1)" style="text;html=1;strokeColor=none;fillColor=none;align=left;verticalAlign=middle;whiteSpace=wrap;rounded=0;" parent="1" vertex="1">
          <mxGeometry x="1440" y="722.5" width="100" height="30" as="geometry" />
        </mxCell>
        <mxCell id="EvVna4faZcCAItMm56S3-239" value="&lt;div align=&quot;right&quot;&gt;PA1 (ADC1)&lt;/div&gt;" style="text;html=1;strokeColor=none;fillColor=none;align=right;verticalAlign=middle;whiteSpace=wrap;rounded=0;" parent="1" vertex="1">
          <mxGeometry x="1580" y="722.5" width="100" height="30" as="geometry" />
        </mxCell>
        <mxCell id="EvVna4faZcCAItMm56S3-240" value="PB2 (INT2/AINO0)" style="text;html=1;strokeColor=none;fillColor=none;align=left;verticalAlign=middle;whiteSpace=wrap;rounded=0;" parent="1" vertex="1">
          <mxGeometry x="1440" y="772.5" width="110" height="30" as="geometry" />
        </mxCell>
        <mxCell id="EvVna4faZcCAItMm56S3-241" value="&lt;div align=&quot;right&quot;&gt;PA2 (ADC2)&lt;/div&gt;" style="text;html=1;strokeColor=none;fillColor=none;align=right;verticalAlign=middle;whiteSpace=wrap;rounded=0;" parent="1" vertex="1">
          <mxGeometry x="1580" y="772.5" width="100" height="30" as="geometry" />
        </mxCell>
        <mxCell id="EvVna4faZcCAItMm56S3-242" value="PB3 (OC0/AIN1)" style="text;html=1;strokeColor=none;fillColor=none;align=left;verticalAlign=middle;whiteSpace=wrap;rounded=0;" parent="1" vertex="1">
          <mxGeometry x="1440" y="822.5" width="100" height="30" as="geometry" />
        </mxCell>
        <mxCell id="EvVna4faZcCAItMm56S3-243" value="&lt;div align=&quot;right&quot;&gt;PA3 (ADC3)&lt;/div&gt;" style="text;html=1;strokeColor=none;fillColor=none;align=right;verticalAlign=middle;whiteSpace=wrap;rounded=0;" parent="1" vertex="1">
          <mxGeometry x="1580" y="822.5" width="100" height="30" as="geometry" />
        </mxCell>
        <mxCell id="EvVna4faZcCAItMm56S3-244" value="&lt;div align=&quot;left&quot;&gt;PB4 (SS)&lt;/div&gt;" style="text;html=1;strokeColor=none;fillColor=none;align=left;verticalAlign=middle;whiteSpace=wrap;rounded=0;" parent="1" vertex="1">
          <mxGeometry x="1440" y="872.5" width="100" height="30" as="geometry" />
        </mxCell>
        <mxCell id="EvVna4faZcCAItMm56S3-245" value="&lt;div align=&quot;right&quot;&gt;PA4 (ADC4)&lt;/div&gt;" style="text;html=1;strokeColor=none;fillColor=none;align=right;verticalAlign=middle;whiteSpace=wrap;rounded=0;" parent="1" vertex="1">
          <mxGeometry x="1580" y="872.5" width="100" height="30" as="geometry" />
        </mxCell>
        <mxCell id="EvVna4faZcCAItMm56S3-246" value="&lt;div align=&quot;left&quot;&gt;PB5 (MOSI)&lt;br&gt;&lt;/div&gt;" style="text;html=1;strokeColor=none;fillColor=none;align=left;verticalAlign=middle;whiteSpace=wrap;rounded=0;" parent="1" vertex="1">
          <mxGeometry x="1440" y="922.5" width="100" height="30" as="geometry" />
        </mxCell>
        <mxCell id="EvVna4faZcCAItMm56S3-247" value="PA5 (ADC5)" style="text;html=1;strokeColor=none;fillColor=none;align=right;verticalAlign=middle;whiteSpace=wrap;rounded=0;" parent="1" vertex="1">
          <mxGeometry x="1580" y="922.5" width="100" height="30" as="geometry" />
        </mxCell>
        <mxCell id="EvVna4faZcCAItMm56S3-248" value="PB6 (MISO)" style="text;html=1;strokeColor=none;fillColor=none;align=left;verticalAlign=middle;whiteSpace=wrap;rounded=0;" parent="1" vertex="1">
          <mxGeometry x="1440" y="972.5" width="100" height="30" as="geometry" />
        </mxCell>
        <mxCell id="EvVna4faZcCAItMm56S3-249" value="PA6 (ADC6)" style="text;html=1;strokeColor=none;fillColor=none;align=right;verticalAlign=middle;whiteSpace=wrap;rounded=0;" parent="1" vertex="1">
          <mxGeometry x="1580" y="972.5" width="100" height="30" as="geometry" />
        </mxCell>
        <mxCell id="EvVna4faZcCAItMm56S3-250" value="PB7 (SCK)" style="text;html=1;strokeColor=none;fillColor=none;align=left;verticalAlign=middle;whiteSpace=wrap;rounded=0;" parent="1" vertex="1">
          <mxGeometry x="1440" y="1022.5" width="100" height="30" as="geometry" />
        </mxCell>
        <mxCell id="EvVna4faZcCAItMm56S3-251" value="PA7 (ADC7)" style="text;html=1;strokeColor=none;fillColor=none;align=right;verticalAlign=middle;whiteSpace=wrap;rounded=0;" parent="1" vertex="1">
          <mxGeometry x="1580" y="1022.5" width="100" height="30" as="geometry" />
        </mxCell>
        <mxCell id="EvVna4faZcCAItMm56S3-252" value="NOT RESET" style="text;html=1;strokeColor=none;fillColor=none;align=left;verticalAlign=middle;whiteSpace=wrap;rounded=0;" parent="1" vertex="1">
          <mxGeometry x="1440" y="1072.5" width="100" height="30" as="geometry" />
        </mxCell>
        <mxCell id="EvVna4faZcCAItMm56S3-253" value="AREF" style="text;html=1;strokeColor=none;fillColor=none;align=right;verticalAlign=middle;whiteSpace=wrap;rounded=0;" parent="1" vertex="1">
          <mxGeometry x="1580" y="1072.5" width="100" height="30" as="geometry" />
        </mxCell>
        <mxCell id="EvVna4faZcCAItMm56S3-254" value="VCC" style="text;html=1;strokeColor=none;fillColor=none;align=left;verticalAlign=middle;whiteSpace=wrap;rounded=0;" parent="1" vertex="1">
          <mxGeometry x="1440" y="1122.5" width="100" height="30" as="geometry" />
        </mxCell>
        <mxCell id="EvVna4faZcCAItMm56S3-255" value="GND" style="text;html=1;strokeColor=none;fillColor=none;align=right;verticalAlign=middle;whiteSpace=wrap;rounded=0;" parent="1" vertex="1">
          <mxGeometry x="1580" y="1122.5" width="100" height="30" as="geometry" />
        </mxCell>
        <mxCell id="EvVna4faZcCAItMm56S3-256" value="GND" style="text;html=1;strokeColor=none;fillColor=none;align=left;verticalAlign=middle;whiteSpace=wrap;rounded=0;" parent="1" vertex="1">
          <mxGeometry x="1440" y="1172.5" width="100" height="30" as="geometry" />
        </mxCell>
        <mxCell id="EvVna4faZcCAItMm56S3-257" value="AVCC" style="text;html=1;strokeColor=none;fillColor=none;align=right;verticalAlign=middle;whiteSpace=wrap;rounded=0;" parent="1" vertex="1">
          <mxGeometry x="1580" y="1172.5" width="100" height="30" as="geometry" />
        </mxCell>
        <mxCell id="EvVna4faZcCAItMm56S3-258" value="XTAL1" style="text;html=1;strokeColor=none;fillColor=none;align=left;verticalAlign=middle;whiteSpace=wrap;rounded=0;" parent="1" vertex="1">
          <mxGeometry x="1440" y="1222.5" width="100" height="30" as="geometry" />
        </mxCell>
        <mxCell id="EvVna4faZcCAItMm56S3-259" value="PC7 (TOSC2)" style="text;html=1;strokeColor=none;fillColor=none;align=right;verticalAlign=middle;whiteSpace=wrap;rounded=0;" parent="1" vertex="1">
          <mxGeometry x="1580" y="1222.5" width="100" height="30" as="geometry" />
        </mxCell>
        <mxCell id="EvVna4faZcCAItMm56S3-260" value="PD0 (RXD)" style="text;html=1;strokeColor=none;fillColor=none;align=left;verticalAlign=middle;whiteSpace=wrap;rounded=0;" parent="1" vertex="1">
          <mxGeometry x="1440" y="1322.5" width="100" height="30" as="geometry" />
        </mxCell>
        <mxCell id="EvVna4faZcCAItMm56S3-261" value="PC6 (TOSC1)" style="text;html=1;strokeColor=none;fillColor=none;align=right;verticalAlign=middle;whiteSpace=wrap;rounded=0;" parent="1" vertex="1">
          <mxGeometry x="1580" y="1272.5" width="100" height="30" as="geometry" />
        </mxCell>
        <mxCell id="EvVna4faZcCAItMm56S3-262" value="PD1 (TXD)" style="text;html=1;strokeColor=none;fillColor=none;align=left;verticalAlign=middle;whiteSpace=wrap;rounded=0;" parent="1" vertex="1">
          <mxGeometry x="1440" y="1372.5" width="100" height="30" as="geometry" />
        </mxCell>
        <mxCell id="EvVna4faZcCAItMm56S3-263" value="PC5 (TDI)" style="text;html=1;strokeColor=none;fillColor=none;align=right;verticalAlign=middle;whiteSpace=wrap;rounded=0;" parent="1" vertex="1">
          <mxGeometry x="1580" y="1322.5" width="100" height="30" as="geometry" />
        </mxCell>
        <mxCell id="EvVna4faZcCAItMm56S3-264" value="PD2 (INT0)" style="text;html=1;strokeColor=none;fillColor=none;align=left;verticalAlign=middle;whiteSpace=wrap;rounded=0;" parent="1" vertex="1">
          <mxGeometry x="1440" y="1422.5" width="100" height="30" as="geometry" />
        </mxCell>
        <mxCell id="EvVna4faZcCAItMm56S3-265" value="PC4 (TDO)" style="text;html=1;strokeColor=none;fillColor=none;align=right;verticalAlign=middle;whiteSpace=wrap;rounded=0;" parent="1" vertex="1">
          <mxGeometry x="1580" y="1372.5" width="100" height="30" as="geometry" />
        </mxCell>
        <mxCell id="EvVna4faZcCAItMm56S3-266" value="PD3 (INT1)" style="text;html=1;strokeColor=none;fillColor=none;align=left;verticalAlign=middle;whiteSpace=wrap;rounded=0;" parent="1" vertex="1">
          <mxGeometry x="1440" y="1472.5" width="100" height="30" as="geometry" />
        </mxCell>
        <mxCell id="EvVna4faZcCAItMm56S3-267" value="PC3 (TMS)" style="text;html=1;strokeColor=none;fillColor=none;align=right;verticalAlign=middle;whiteSpace=wrap;rounded=0;" parent="1" vertex="1">
          <mxGeometry x="1580" y="1422.5" width="100" height="30" as="geometry" />
        </mxCell>
        <mxCell id="EvVna4faZcCAItMm56S3-268" value="PD4 (OS1B)" style="text;html=1;strokeColor=none;fillColor=none;align=left;verticalAlign=middle;whiteSpace=wrap;rounded=0;" parent="1" vertex="1">
          <mxGeometry x="1440" y="1522.5" width="100" height="30" as="geometry" />
        </mxCell>
        <mxCell id="EvVna4faZcCAItMm56S3-269" value="PC2 (TCK)" style="text;html=1;strokeColor=none;fillColor=none;align=right;verticalAlign=middle;whiteSpace=wrap;rounded=0;" parent="1" vertex="1">
          <mxGeometry x="1580" y="1472.5" width="100" height="30" as="geometry" />
        </mxCell>
        <mxCell id="EvVna4faZcCAItMm56S3-270" value="PC1 (SDA)" style="text;html=1;strokeColor=none;fillColor=none;align=right;verticalAlign=middle;whiteSpace=wrap;rounded=0;" parent="1" vertex="1">
          <mxGeometry x="1580" y="1522.5" width="100" height="30" as="geometry" />
        </mxCell>
        <mxCell id="EvVna4faZcCAItMm56S3-271" value="PC0 (SCL)" style="text;html=1;strokeColor=none;fillColor=none;align=right;verticalAlign=middle;whiteSpace=wrap;rounded=0;" parent="1" vertex="1">
          <mxGeometry x="1580" y="1572.5" width="100" height="30" as="geometry" />
        </mxCell>
        <mxCell id="EvVna4faZcCAItMm56S3-272" value="PD7 (OC2)" style="text;html=1;strokeColor=none;fillColor=none;align=right;verticalAlign=middle;whiteSpace=wrap;rounded=0;" parent="1" vertex="1">
          <mxGeometry x="1580" y="1622.5" width="100" height="30" as="geometry" />
        </mxCell>
        <mxCell id="EvVna4faZcCAItMm56S3-273" value="XTAL2" style="text;html=1;strokeColor=none;fillColor=none;align=left;verticalAlign=middle;whiteSpace=wrap;rounded=0;" parent="1" vertex="1">
          <mxGeometry x="1440" y="1272.5" width="100" height="30" as="geometry" />
        </mxCell>
        <mxCell id="EvVna4faZcCAItMm56S3-274" value="PD5 (OS1A)" style="text;html=1;strokeColor=none;fillColor=none;align=left;verticalAlign=middle;whiteSpace=wrap;rounded=0;" parent="1" vertex="1">
          <mxGeometry x="1440" y="1572.5" width="100" height="30" as="geometry" />
        </mxCell>
        <mxCell id="EvVna4faZcCAItMm56S3-275" value="PD6 (ICP)" style="text;html=1;strokeColor=none;fillColor=none;align=left;verticalAlign=middle;whiteSpace=wrap;rounded=0;" parent="1" vertex="1">
          <mxGeometry x="1440" y="1622.5" width="100" height="30" as="geometry" />
        </mxCell>
        <mxCell id="EvVna4faZcCAItMm56S3-276" value="" style="ellipse;whiteSpace=wrap;html=1;aspect=fixed;fillColor=#f5f5f5;fontColor=#333333;strokeColor=#666666;" parent="1" vertex="1">
          <mxGeometry x="1450" y="612.5" width="20" height="20" as="geometry" />
        </mxCell>
        <mxCell id="EvVna4faZcCAItMm56S3-277" value="&lt;h1&gt;ATmega1284&lt;/h1&gt;" style="text;html=1;strokeColor=none;fillColor=none;spacing=5;spacingTop=-20;whiteSpace=wrap;overflow=hidden;rounded=0;align=center;" parent="1" vertex="1">
          <mxGeometry x="1482.5" y="605" width="190" height="35" as="geometry" />
        </mxCell>
        <mxCell id="EvVna4faZcCAItMm56S3-407" value="" style="endArrow=none;html=1;rounded=0;strokeWidth=3;" parent="1" edge="1">
          <mxGeometry width="50" height="50" relative="1" as="geometry">
            <mxPoint x="960" y="360" as="sourcePoint" />
            <mxPoint x="2080" y="360" as="targetPoint" />
          </mxGeometry>
        </mxCell>
        <mxCell id="EvVna4faZcCAItMm56S3-408" value="" style="endArrow=none;html=1;rounded=0;strokeWidth=3;" parent="1" edge="1">
          <mxGeometry width="50" height="50" relative="1" as="geometry">
            <mxPoint x="960" y="1800" as="sourcePoint" />
            <mxPoint x="2080" y="1800" as="targetPoint" />
          </mxGeometry>
        </mxCell>
        <mxCell id="EvVna4faZcCAItMm56S3-409" value="" style="endArrow=none;html=1;rounded=0;strokeWidth=3;" parent="1" edge="1">
          <mxGeometry width="50" height="50" relative="1" as="geometry">
            <mxPoint x="960" y="1840" as="sourcePoint" />
            <mxPoint x="2080" y="1840" as="targetPoint" />
          </mxGeometry>
        </mxCell>
        <mxCell id="EvVna4faZcCAItMm56S3-410" value="" style="endArrow=none;html=1;rounded=0;strokeWidth=3;" parent="1" edge="1">
          <mxGeometry width="50" height="50" relative="1" as="geometry">
            <mxPoint x="960" y="1880" as="sourcePoint" />
            <mxPoint x="2080" y="1880" as="targetPoint" />
          </mxGeometry>
        </mxCell>
        <mxCell id="EvVna4faZcCAItMm56S3-411" value="&lt;font style=&quot;font-size: 30px;&quot;&gt;&lt;b&gt;IR&lt;/b&gt;&lt;/font&gt;" style="rounded=0;whiteSpace=wrap;html=1;" parent="1" vertex="1">
          <mxGeometry x="1880" y="600" width="120" height="60" as="geometry" />
        </mxCell>
        <mxCell id="EvVna4faZcCAItMm56S3-414" value="&lt;div align=&quot;right&quot;&gt;&lt;font size=&quot;1&quot;&gt;&lt;b style=&quot;font-size: 20px;&quot;&gt;REFLEX&lt;/b&gt;&lt;/font&gt;&lt;/div&gt;" style="rounded=0;whiteSpace=wrap;html=1;align=right;" parent="1" vertex="1">
          <mxGeometry x="1880" y="840" width="120" height="60" as="geometry" />
        </mxCell>
        <mxCell id="EvVna4faZcCAItMm56S3-415" value="&lt;div align=&quot;right&quot;&gt;&lt;font size=&quot;1&quot;&gt;&lt;b style=&quot;font-size: 20px;&quot;&gt;REFLEX&lt;/b&gt;&lt;/font&gt;&lt;/div&gt;" style="rounded=0;whiteSpace=wrap;html=1;align=right;" parent="1" vertex="1">
          <mxGeometry x="1880" y="920" width="120" height="60" as="geometry" />
        </mxCell>
        <mxCell id="EvVna4faZcCAItMm56S3-416" value="" style="group" parent="1" vertex="1" connectable="0">
          <mxGeometry x="1880" y="1040" width="120" height="180" as="geometry" />
        </mxCell>
        <mxCell id="EvVna4faZcCAItMm56S3-417" value="" style="rounded=0;whiteSpace=wrap;html=1;" parent="EvVna4faZcCAItMm56S3-416" vertex="1">
          <mxGeometry width="120" height="180" as="geometry" />
        </mxCell>
        <mxCell id="EvVna4faZcCAItMm56S3-418" value="&lt;div&gt;&lt;span style=&quot;font-weight: normal;&quot;&gt;1. Vin&lt;/span&gt;&lt;/div&gt;&lt;div&gt;&lt;span style=&quot;font-weight: normal;&quot;&gt;2. GND&lt;br&gt;&lt;/span&gt;&lt;/div&gt;&lt;div&gt;&lt;span style=&quot;font-weight: normal;&quot;&gt;3. SDA&lt;/span&gt;&lt;/div&gt;&lt;div&gt;&lt;span style=&quot;font-weight: normal;&quot;&gt;4. SCL&lt;/span&gt;&lt;br&gt;&lt;/div&gt;" style="text;whiteSpace=wrap;html=1;align=left;fontStyle=1" parent="EvVna4faZcCAItMm56S3-416" vertex="1">
          <mxGeometry x="50" y="50" width="50" height="86.15" as="geometry" />
        </mxCell>
        <mxCell id="EvVna4faZcCAItMm56S3-419" value="2." style="text;html=1;strokeColor=none;fillColor=none;align=center;verticalAlign=middle;whiteSpace=wrap;rounded=0;" parent="EvVna4faZcCAItMm56S3-416" vertex="1">
          <mxGeometry y="70" width="20" height="20" as="geometry" />
        </mxCell>
        <mxCell id="EvVna4faZcCAItMm56S3-420" value="3." style="text;html=1;strokeColor=none;fillColor=none;align=center;verticalAlign=middle;whiteSpace=wrap;rounded=0;" parent="EvVna4faZcCAItMm56S3-416" vertex="1">
          <mxGeometry y="100" width="20" height="20" as="geometry" />
        </mxCell>
        <mxCell id="EvVna4faZcCAItMm56S3-421" value="4." style="text;html=1;strokeColor=none;fillColor=none;align=center;verticalAlign=middle;whiteSpace=wrap;rounded=0;" parent="EvVna4faZcCAItMm56S3-416" vertex="1">
          <mxGeometry y="130" width="20" height="20" as="geometry" />
        </mxCell>
        <mxCell id="EvVna4faZcCAItMm56S3-422" value="1." style="text;html=1;strokeColor=none;fillColor=none;align=center;verticalAlign=middle;whiteSpace=wrap;rounded=0;" parent="EvVna4faZcCAItMm56S3-416" vertex="1">
          <mxGeometry y="40" width="20" height="20" as="geometry" />
        </mxCell>
        <mxCell id="EvVna4faZcCAItMm56S3-423" value="&lt;b&gt;GYRO&lt;/b&gt;" style="text;whiteSpace=wrap;html=1;fontSize=25;" parent="EvVna4faZcCAItMm56S3-416" vertex="1">
          <mxGeometry x="10" width="80" height="40" as="geometry" />
        </mxCell>
        <mxCell id="EvVna4faZcCAItMm56S3-429" value="V0" style="text;html=1;strokeColor=none;fillColor=none;align=right;verticalAlign=middle;whiteSpace=wrap;rounded=0;" parent="1" vertex="1">
          <mxGeometry x="1880" y="607.5" width="20" height="12.5" as="geometry" />
        </mxCell>
        <mxCell id="EvVna4faZcCAItMm56S3-431" value="VCC" style="text;html=1;strokeColor=none;fillColor=none;align=right;verticalAlign=middle;whiteSpace=wrap;rounded=0;" parent="1" vertex="1">
          <mxGeometry x="1880" y="622.5" width="30" height="17.5" as="geometry" />
        </mxCell>
        <mxCell id="EvVna4faZcCAItMm56S3-433" value="GND" style="text;html=1;strokeColor=none;fillColor=none;align=right;verticalAlign=middle;whiteSpace=wrap;rounded=0;" parent="1" vertex="1">
          <mxGeometry x="1880" y="640" width="30" height="17.5" as="geometry" />
        </mxCell>
        <mxCell id="EvVna4faZcCAItMm56S3-445" value="&lt;font style=&quot;font-size: 30px;&quot;&gt;&lt;b&gt;IR&lt;/b&gt;&lt;/font&gt;" style="rounded=0;whiteSpace=wrap;html=1;" parent="1" vertex="1">
          <mxGeometry x="1880" y="680" width="120" height="60" as="geometry" />
        </mxCell>
        <mxCell id="EvVna4faZcCAItMm56S3-446" value="V0" style="text;html=1;strokeColor=none;fillColor=none;align=right;verticalAlign=middle;whiteSpace=wrap;rounded=0;" parent="1" vertex="1">
          <mxGeometry x="1880" y="687.5" width="20" height="12.5" as="geometry" />
        </mxCell>
        <mxCell id="EvVna4faZcCAItMm56S3-447" value="VCC" style="text;html=1;strokeColor=none;fillColor=none;align=right;verticalAlign=middle;whiteSpace=wrap;rounded=0;" parent="1" vertex="1">
          <mxGeometry x="1880" y="701.25" width="30" height="17.5" as="geometry" />
        </mxCell>
        <mxCell id="EvVna4faZcCAItMm56S3-448" value="GND" style="text;html=1;strokeColor=none;fillColor=none;align=right;verticalAlign=middle;whiteSpace=wrap;rounded=0;" parent="1" vertex="1">
          <mxGeometry x="1880" y="720" width="30" height="17.5" as="geometry" />
        </mxCell>
        <mxCell id="EvVna4faZcCAItMm56S3-449" value="&lt;font style=&quot;font-size: 30px;&quot;&gt;&lt;b&gt;IR&lt;/b&gt;&lt;/font&gt;" style="rounded=0;whiteSpace=wrap;html=1;" parent="1" vertex="1">
          <mxGeometry x="1880" y="760" width="120" height="60" as="geometry" />
        </mxCell>
        <mxCell id="EvVna4faZcCAItMm56S3-450" value="V0" style="text;html=1;strokeColor=none;fillColor=none;align=right;verticalAlign=middle;whiteSpace=wrap;rounded=0;" parent="1" vertex="1">
          <mxGeometry x="1880" y="767.5" width="20" height="12.5" as="geometry" />
        </mxCell>
        <mxCell id="EvVna4faZcCAItMm56S3-451" value="VCC" style="text;html=1;strokeColor=none;fillColor=none;align=right;verticalAlign=middle;whiteSpace=wrap;rounded=0;" parent="1" vertex="1">
          <mxGeometry x="1880" y="781.25" width="30" height="17.5" as="geometry" />
        </mxCell>
        <mxCell id="EvVna4faZcCAItMm56S3-452" value="GND" style="text;html=1;strokeColor=none;fillColor=none;align=right;verticalAlign=middle;whiteSpace=wrap;rounded=0;" parent="1" vertex="1">
          <mxGeometry x="1880" y="800" width="30" height="17.5" as="geometry" />
        </mxCell>
        <mxCell id="EvVna4faZcCAItMm56S3-456" value="OUT" style="text;html=1;strokeColor=none;fillColor=none;align=right;verticalAlign=middle;whiteSpace=wrap;rounded=0;" parent="1" vertex="1">
          <mxGeometry x="1880" y="845" width="30" height="12.5" as="geometry" />
        </mxCell>
        <mxCell id="EvVna4faZcCAItMm56S3-457" value="VCC" style="text;html=1;strokeColor=none;fillColor=none;align=right;verticalAlign=middle;whiteSpace=wrap;rounded=0;" parent="1" vertex="1">
          <mxGeometry x="1880" y="861.25" width="30" height="17.5" as="geometry" />
        </mxCell>
        <mxCell id="EvVna4faZcCAItMm56S3-458" value="GND" style="text;html=1;strokeColor=none;fillColor=none;align=right;verticalAlign=middle;whiteSpace=wrap;rounded=0;" parent="1" vertex="1">
          <mxGeometry x="1880" y="877.5" width="30" height="17.5" as="geometry" />
        </mxCell>
        <mxCell id="EvVna4faZcCAItMm56S3-459" value="OUT" style="text;html=1;strokeColor=none;fillColor=none;align=right;verticalAlign=middle;whiteSpace=wrap;rounded=0;" parent="1" vertex="1">
          <mxGeometry x="1880" y="925" width="30" height="12.5" as="geometry" />
        </mxCell>
        <mxCell id="EvVna4faZcCAItMm56S3-460" value="VCC" style="text;html=1;strokeColor=none;fillColor=none;align=right;verticalAlign=middle;whiteSpace=wrap;rounded=0;" parent="1" vertex="1">
          <mxGeometry x="1880" y="940" width="30" height="17.5" as="geometry" />
        </mxCell>
        <mxCell id="EvVna4faZcCAItMm56S3-461" value="GND" style="text;html=1;strokeColor=none;fillColor=none;align=right;verticalAlign=middle;whiteSpace=wrap;rounded=0;" parent="1" vertex="1">
          <mxGeometry x="1880" y="957.5" width="30" height="17.5" as="geometry" />
        </mxCell>
        <mxCell id="EvVna4faZcCAItMm56S3-462" value="" style="endArrow=none;html=1;rounded=0;exitX=0;exitY=0.5;exitDx=0;exitDy=0;" parent="1" source="EvVna4faZcCAItMm56S3-431" edge="1">
          <mxGeometry width="50" height="50" relative="1" as="geometry">
            <mxPoint x="1770" y="600" as="sourcePoint" />
            <mxPoint x="1850" y="360" as="targetPoint" />
            <Array as="points">
              <mxPoint x="1850" y="631" />
            </Array>
          </mxGeometry>
        </mxCell>
        <mxCell id="EvVna4faZcCAItMm56S3-463" value="" style="endArrow=none;html=1;rounded=0;entryX=0;entryY=0.5;entryDx=0;entryDy=0;" parent="1" target="EvVna4faZcCAItMm56S3-447" edge="1">
          <mxGeometry width="50" height="50" relative="1" as="geometry">
            <mxPoint x="1850" y="360" as="sourcePoint" />
            <mxPoint x="1870" y="710" as="targetPoint" />
            <Array as="points">
              <mxPoint x="1850" y="540" />
              <mxPoint x="1850" y="710" />
            </Array>
          </mxGeometry>
        </mxCell>
        <mxCell id="EvVna4faZcCAItMm56S3-464" value="" style="endArrow=none;html=1;rounded=0;entryX=0;entryY=0.5;entryDx=0;entryDy=0;" parent="1" target="EvVna4faZcCAItMm56S3-451" edge="1">
          <mxGeometry width="50" height="50" relative="1" as="geometry">
            <mxPoint x="1850" y="360" as="sourcePoint" />
            <mxPoint x="1790" y="780" as="targetPoint" />
            <Array as="points">
              <mxPoint x="1850" y="710" />
              <mxPoint x="1850" y="790" />
            </Array>
          </mxGeometry>
        </mxCell>
        <mxCell id="EvVna4faZcCAItMm56S3-465" value="" style="endArrow=none;html=1;rounded=0;entryX=0;entryY=0.5;entryDx=0;entryDy=0;" parent="1" target="EvVna4faZcCAItMm56S3-457" edge="1">
          <mxGeometry width="50" height="50" relative="1" as="geometry">
            <mxPoint x="1850" y="360" as="sourcePoint" />
            <mxPoint x="1850" y="880" as="targetPoint" />
            <Array as="points">
              <mxPoint x="1850" y="870" />
            </Array>
          </mxGeometry>
        </mxCell>
        <mxCell id="EvVna4faZcCAItMm56S3-466" value="" style="endArrow=none;html=1;rounded=0;entryX=0;entryY=0.5;entryDx=0;entryDy=0;" parent="1" target="EvVna4faZcCAItMm56S3-460" edge="1">
          <mxGeometry width="50" height="50" relative="1" as="geometry">
            <mxPoint x="1850" y="360" as="sourcePoint" />
            <mxPoint x="1860" y="950" as="targetPoint" />
            <Array as="points">
              <mxPoint x="1850" y="949" />
            </Array>
          </mxGeometry>
        </mxCell>
        <mxCell id="EvVna4faZcCAItMm56S3-467" value="" style="endArrow=none;html=1;rounded=0;entryX=0;entryY=0.5;entryDx=0;entryDy=0;strokeWidth=2;" parent="1" target="EvVna4faZcCAItMm56S3-419" edge="1">
          <mxGeometry width="50" height="50" relative="1" as="geometry">
            <mxPoint x="1810" y="1800" as="sourcePoint" />
            <mxPoint x="1820" y="1120" as="targetPoint" />
            <Array as="points">
              <mxPoint x="1810" y="1440" />
              <mxPoint x="1810" y="1120" />
            </Array>
          </mxGeometry>
        </mxCell>
        <mxCell id="EvVna4faZcCAItMm56S3-468" value="" style="endArrow=none;html=1;rounded=0;entryX=0;entryY=0.5;entryDx=0;entryDy=0;" parent="1" edge="1">
          <mxGeometry width="50" height="50" relative="1" as="geometry">
            <mxPoint x="1380" y="1800" as="sourcePoint" />
            <mxPoint x="1410" y="1190" as="targetPoint" />
            <Array as="points">
              <mxPoint x="1380" y="1500" />
              <mxPoint x="1380" y="1190" />
            </Array>
          </mxGeometry>
        </mxCell>
        <mxCell id="EvVna4faZcCAItMm56S3-469" value="" style="endArrow=none;html=1;rounded=0;entryX=0;entryY=0.5;entryDx=0;entryDy=0;" parent="1" edge="1">
          <mxGeometry width="50" height="50" relative="1" as="geometry">
            <mxPoint x="1380" y="360" as="sourcePoint" />
            <mxPoint x="1410" y="1139.99" as="targetPoint" />
            <Array as="points">
              <mxPoint x="1380" y="1139.99" />
            </Array>
          </mxGeometry>
        </mxCell>
        <mxCell id="EvVna4faZcCAItMm56S3-470" value="" style="endArrow=none;html=1;rounded=0;entryX=0;entryY=0.5;entryDx=0;entryDy=0;" parent="1" target="EvVna4faZcCAItMm56S3-209" edge="1">
          <mxGeometry width="50" height="50" relative="1" as="geometry">
            <mxPoint x="1350" y="1430" as="sourcePoint" />
            <mxPoint x="1330" y="1430" as="targetPoint" />
            <Array as="points">
              <mxPoint x="1350" y="1338" />
            </Array>
          </mxGeometry>
        </mxCell>
        <mxCell id="EvVna4faZcCAItMm56S3-471" value="" style="endArrow=none;html=1;rounded=0;entryX=0;entryY=0.5;entryDx=0;entryDy=0;" parent="1" target="EvVna4faZcCAItMm56S3-210" edge="1">
          <mxGeometry width="50" height="50" relative="1" as="geometry">
            <mxPoint x="1350" y="1388" as="sourcePoint" />
            <mxPoint x="1280" y="1500" as="targetPoint" />
          </mxGeometry>
        </mxCell>
        <mxCell id="EvVna4faZcCAItMm56S3-472" value="" style="endArrow=none;html=1;rounded=0;exitX=1;exitY=0.5;exitDx=0;exitDy=0;" parent="1" source="EvVna4faZcCAItMm56S3-232" edge="1">
          <mxGeometry width="50" height="50" relative="1" as="geometry">
            <mxPoint x="1740" y="1490" as="sourcePoint" />
            <mxPoint x="1760" y="1320" as="targetPoint" />
            <Array as="points">
              <mxPoint x="1760" y="1488" />
            </Array>
          </mxGeometry>
        </mxCell>
        <mxCell id="EvVna4faZcCAItMm56S3-473" value="" style="endArrow=none;html=1;rounded=0;" parent="1" edge="1">
          <mxGeometry width="50" height="50" relative="1" as="geometry">
            <mxPoint x="1710" y="1440" as="sourcePoint" />
            <mxPoint x="1760" y="1440" as="targetPoint" />
          </mxGeometry>
        </mxCell>
        <mxCell id="EvVna4faZcCAItMm56S3-474" value="" style="endArrow=none;html=1;rounded=0;" parent="1" edge="1">
          <mxGeometry width="50" height="50" relative="1" as="geometry">
            <mxPoint x="1710" y="1390" as="sourcePoint" />
            <mxPoint x="1760" y="1390" as="targetPoint" />
          </mxGeometry>
        </mxCell>
        <mxCell id="EvVna4faZcCAItMm56S3-475" value="" style="endArrow=none;html=1;rounded=0;" parent="1" edge="1">
          <mxGeometry width="50" height="50" relative="1" as="geometry">
            <mxPoint x="1710" y="1340" as="sourcePoint" />
            <mxPoint x="1760" y="1340" as="targetPoint" />
          </mxGeometry>
        </mxCell>
        <mxCell id="EvVna4faZcCAItMm56S3-476" value="" style="endArrow=none;html=1;rounded=0;exitX=1;exitY=0.5;exitDx=0;exitDy=0;" parent="1" source="EvVna4faZcCAItMm56S3-233" edge="1">
          <mxGeometry width="50" height="50" relative="1" as="geometry">
            <mxPoint x="1760" y="1530" as="sourcePoint" />
            <mxPoint x="1760" y="1840" as="targetPoint" />
            <Array as="points">
              <mxPoint x="1760" y="1538" />
            </Array>
          </mxGeometry>
        </mxCell>
        <mxCell id="EvVna4faZcCAItMm56S3-477" value="" style="endArrow=none;html=1;rounded=0;exitX=1;exitY=0.5;exitDx=0;exitDy=0;" parent="1" source="EvVna4faZcCAItMm56S3-234" edge="1">
          <mxGeometry width="50" height="50" relative="1" as="geometry">
            <mxPoint x="1750" y="1600" as="sourcePoint" />
            <mxPoint x="1740" y="1880" as="targetPoint" />
            <Array as="points">
              <mxPoint x="1740" y="1588" />
            </Array>
          </mxGeometry>
        </mxCell>
        <mxCell id="EvVna4faZcCAItMm56S3-478" value="" style="endArrow=none;html=1;rounded=0;entryX=0;entryY=0.5;entryDx=0;entryDy=0;" parent="1" target="EvVna4faZcCAItMm56S3-422" edge="1">
          <mxGeometry width="50" height="50" relative="1" as="geometry">
            <mxPoint x="1850" y="360" as="sourcePoint" />
            <mxPoint x="1880" y="1097.5" as="targetPoint" />
            <Array as="points">
              <mxPoint x="1850" y="1090" />
            </Array>
          </mxGeometry>
        </mxCell>
        <mxCell id="EvVna4faZcCAItMm56S3-479" value="" style="endArrow=none;html=1;rounded=0;entryX=0;entryY=0.5;entryDx=0;entryDy=0;" parent="1" target="EvVna4faZcCAItMm56S3-420" edge="1">
          <mxGeometry width="50" height="50" relative="1" as="geometry">
            <mxPoint x="1820" y="1840" as="sourcePoint" />
            <mxPoint x="1840" y="1160" as="targetPoint" />
            <Array as="points">
              <mxPoint x="1820" y="1150" />
            </Array>
          </mxGeometry>
        </mxCell>
        <mxCell id="EvVna4faZcCAItMm56S3-480" value="" style="endArrow=none;html=1;rounded=0;entryX=0;entryY=0.5;entryDx=0;entryDy=0;" parent="1" edge="1">
          <mxGeometry width="50" height="50" relative="1" as="geometry">
            <mxPoint x="1790" y="1880" as="sourcePoint" />
            <mxPoint x="1880" y="1180" as="targetPoint" />
            <Array as="points">
              <mxPoint x="1790" y="1180" />
            </Array>
          </mxGeometry>
        </mxCell>
        <mxCell id="EvVna4faZcCAItMm56S3-481" value="" style="endArrow=none;html=1;rounded=0;exitX=1;exitY=0.5;exitDx=0;exitDy=0;entryX=0;entryY=0.5;entryDx=0;entryDy=0;" parent="1" source="EvVna4faZcCAItMm56S3-216" target="EvVna4faZcCAItMm56S3-429" edge="1">
          <mxGeometry width="50" height="50" relative="1" as="geometry">
            <mxPoint x="1750" y="780" as="sourcePoint" />
            <mxPoint x="1800" y="730" as="targetPoint" />
            <Array as="points">
              <mxPoint x="1760" y="688" />
              <mxPoint x="1760" y="614" />
            </Array>
          </mxGeometry>
        </mxCell>
        <mxCell id="EvVna4faZcCAItMm56S3-482" value="" style="endArrow=none;html=1;rounded=0;entryX=0;entryY=0.5;entryDx=0;entryDy=0;strokeWidth=2;" parent="1" edge="1">
          <mxGeometry width="50" height="50" relative="1" as="geometry">
            <mxPoint x="1810" y="1327.5" as="sourcePoint" />
            <mxPoint x="1880" y="647.5" as="targetPoint" />
            <Array as="points">
              <mxPoint x="1810" y="967.5" />
              <mxPoint x="1810" y="647.5" />
            </Array>
          </mxGeometry>
        </mxCell>
        <mxCell id="EvVna4faZcCAItMm56S3-483" value="" style="endArrow=none;html=1;rounded=0;entryX=0;entryY=0.5;entryDx=0;entryDy=0;strokeWidth=2;" parent="1" edge="1">
          <mxGeometry width="50" height="50" relative="1" as="geometry">
            <mxPoint x="1810" y="1410" as="sourcePoint" />
            <mxPoint x="1880" y="730" as="targetPoint" />
            <Array as="points">
              <mxPoint x="1810" y="1050" />
              <mxPoint x="1810" y="730" />
            </Array>
          </mxGeometry>
        </mxCell>
        <mxCell id="EvVna4faZcCAItMm56S3-484" value="" style="endArrow=none;html=1;rounded=0;entryX=0;entryY=0.5;entryDx=0;entryDy=0;strokeWidth=2;" parent="1" edge="1">
          <mxGeometry width="50" height="50" relative="1" as="geometry">
            <mxPoint x="1810" y="1490" as="sourcePoint" />
            <mxPoint x="1880" y="810" as="targetPoint" />
            <Array as="points">
              <mxPoint x="1810" y="1130" />
              <mxPoint x="1810" y="810" />
            </Array>
          </mxGeometry>
        </mxCell>
        <mxCell id="EvVna4faZcCAItMm56S3-485" value="" style="endArrow=none;html=1;rounded=0;entryX=0;entryY=0.5;entryDx=0;entryDy=0;strokeWidth=2;" parent="1" edge="1">
          <mxGeometry width="50" height="50" relative="1" as="geometry">
            <mxPoint x="1810" y="1567.5" as="sourcePoint" />
            <mxPoint x="1880" y="887.5" as="targetPoint" />
            <Array as="points">
              <mxPoint x="1810" y="1207.5" />
              <mxPoint x="1810" y="887.5" />
            </Array>
          </mxGeometry>
        </mxCell>
        <mxCell id="EvVna4faZcCAItMm56S3-486" value="" style="endArrow=none;html=1;rounded=0;entryX=0;entryY=0.5;entryDx=0;entryDy=0;strokeWidth=2;" parent="1" edge="1">
          <mxGeometry width="50" height="50" relative="1" as="geometry">
            <mxPoint x="1810" y="1647.5" as="sourcePoint" />
            <mxPoint x="1880" y="967.5" as="targetPoint" />
            <Array as="points">
              <mxPoint x="1810" y="1287.5" />
              <mxPoint x="1810" y="967.5" />
            </Array>
          </mxGeometry>
        </mxCell>
        <mxCell id="EvVna4faZcCAItMm56S3-531" value="&lt;div&gt;&lt;font style=&quot;font-size: 30px;&quot;&gt;&lt;b&gt;RESET&lt;/b&gt;&lt;/font&gt;&lt;/div&gt;" style="rounded=0;whiteSpace=wrap;html=1;" parent="1" vertex="1">
          <mxGeometry x="1180" y="450" width="160" height="60" as="geometry" />
        </mxCell>
        <mxCell id="EvVna4faZcCAItMm56S3-533" value="+5V" style="whiteSpace=wrap;html=1;aspect=fixed;" parent="1" vertex="1">
          <mxGeometry x="1340" y="465" width="30" height="30" as="geometry" />
        </mxCell>
        <mxCell id="EvVna4faZcCAItMm56S3-534" value="GND" style="whiteSpace=wrap;html=1;aspect=fixed;" parent="1" vertex="1">
          <mxGeometry x="1150" y="465" width="30" height="30" as="geometry" />
        </mxCell>
        <mxCell id="EvVna4faZcCAItMm56S3-535" value="OUT" style="whiteSpace=wrap;html=1;aspect=fixed;" parent="1" vertex="1">
          <mxGeometry x="1245" y="510" width="30" height="30" as="geometry" />
        </mxCell>
        <mxCell id="EvVna4faZcCAItMm56S3-537" value="" style="endArrow=none;html=1;rounded=0;exitX=0.5;exitY=0;exitDx=0;exitDy=0;" parent="1" source="EvVna4faZcCAItMm56S3-533" edge="1">
          <mxGeometry width="50" height="50" relative="1" as="geometry">
            <mxPoint x="1040" y="540" as="sourcePoint" />
            <mxPoint x="1355" y="360" as="targetPoint" />
          </mxGeometry>
        </mxCell>
        <mxCell id="EvVna4faZcCAItMm56S3-539" value="" style="endArrow=none;html=1;rounded=0;entryX=0;entryY=0.5;entryDx=0;entryDy=0;" parent="1" target="EvVna4faZcCAItMm56S3-534" edge="1">
          <mxGeometry width="50" height="50" relative="1" as="geometry">
            <mxPoint x="1120" y="1800" as="sourcePoint" />
            <mxPoint x="800" y="490" as="targetPoint" />
            <Array as="points">
              <mxPoint x="1120" y="480" />
            </Array>
          </mxGeometry>
        </mxCell>
        <mxCell id="EvVna4faZcCAItMm56S3-540" value="" style="endArrow=none;html=1;rounded=0;exitX=0.5;exitY=1;exitDx=0;exitDy=0;entryX=0;entryY=0.5;entryDx=0;entryDy=0;" parent="1" source="EvVna4faZcCAItMm56S3-535" target="EvVna4faZcCAItMm56S3-204" edge="1">
          <mxGeometry width="50" height="50" relative="1" as="geometry">
            <mxPoint x="1080" y="560" as="sourcePoint" />
            <mxPoint x="1130" y="510" as="targetPoint" />
            <Array as="points">
              <mxPoint x="1260" y="1088" />
            </Array>
          </mxGeometry>
        </mxCell>
        <mxCell id="EvVna4faZcCAItMm56S3-545" value="&lt;h1&gt;GND&lt;br&gt;&lt;/h1&gt;" style="text;html=1;strokeColor=none;fillColor=none;spacing=5;spacingTop=-20;whiteSpace=wrap;overflow=hidden;rounded=0;align=center;" parent="1" vertex="1">
          <mxGeometry x="890" y="1780" width="70" height="35" as="geometry" />
        </mxCell>
        <mxCell id="EvVna4faZcCAItMm56S3-546" value="&lt;h1&gt;SDA&lt;br&gt;&lt;/h1&gt;" style="text;html=1;strokeColor=none;fillColor=none;spacing=5;spacingTop=-20;whiteSpace=wrap;overflow=hidden;rounded=0;align=center;" parent="1" vertex="1">
          <mxGeometry x="890" y="1820" width="70" height="35" as="geometry" />
        </mxCell>
        <mxCell id="EvVna4faZcCAItMm56S3-548" value="&lt;h1&gt;SCL&lt;/h1&gt;" style="text;html=1;strokeColor=none;fillColor=none;spacing=5;spacingTop=-20;whiteSpace=wrap;overflow=hidden;rounded=0;align=center;" parent="1" vertex="1">
          <mxGeometry x="890" y="1855" width="70" height="35" as="geometry" />
        </mxCell>
        <mxCell id="EvVna4faZcCAItMm56S3-552" value="&lt;h1&gt;JTAG&lt;/h1&gt;" style="text;html=1;strokeColor=none;fillColor=none;spacing=5;spacingTop=-20;whiteSpace=wrap;overflow=hidden;rounded=0;align=center;" parent="1" vertex="1">
          <mxGeometry x="1710" y="1245" width="90" height="35" as="geometry" />
        </mxCell>
        <mxCell id="EvVna4faZcCAItMm56S3-553" value="&lt;h1&gt;UART&lt;/h1&gt;" style="text;html=1;strokeColor=none;fillColor=none;spacing=5;spacingTop=-20;whiteSpace=wrap;overflow=hidden;rounded=0;align=center;" parent="1" vertex="1">
          <mxGeometry x="1240" y="1355" width="90" height="35" as="geometry" />
        </mxCell>
        <mxCell id="2Kqc3Tl-5rJN90L1hJIf-10" value="" style="endArrow=none;html=1;rounded=0;exitX=1.014;exitY=0.581;exitDx=0;exitDy=0;exitPerimeter=0;" parent="1" source="EvVna4faZcCAItMm56S3-226" edge="1">
          <mxGeometry width="50" height="50" relative="1" as="geometry">
            <mxPoint x="1710" y="1188" as="sourcePoint" />
            <mxPoint x="1730" y="1190" as="targetPoint" />
          </mxGeometry>
        </mxCell>
        <mxCell id="2Kqc3Tl-5rJN90L1hJIf-11" value="" style="endArrow=none;html=1;rounded=0;" parent="1" edge="1">
          <mxGeometry width="50" height="50" relative="1" as="geometry">
            <mxPoint x="1730" y="1190" as="sourcePoint" />
            <mxPoint x="1730" y="360" as="targetPoint" />
          </mxGeometry>
        </mxCell>
        <mxCell id="2Kqc3Tl-5rJN90L1hJIf-12" value="" style="endArrow=none;html=1;rounded=0;exitX=1.037;exitY=0.582;exitDx=0;exitDy=0;exitPerimeter=0;strokeWidth=2;" parent="1" source="EvVna4faZcCAItMm56S3-225" edge="1">
          <mxGeometry width="50" height="50" relative="1" as="geometry">
            <mxPoint x="1720" y="1140" as="sourcePoint" />
            <mxPoint x="1810" y="1140" as="targetPoint" />
          </mxGeometry>
        </mxCell>
        <mxCell id="2Kqc3Tl-5rJN90L1hJIf-13" value="" style="endArrow=none;html=1;rounded=0;" parent="1" edge="1">
          <mxGeometry width="50" height="50" relative="1" as="geometry">
            <mxPoint x="1710" y="1090" as="sourcePoint" />
            <mxPoint x="1750" y="1090" as="targetPoint" />
          </mxGeometry>
        </mxCell>
        <mxCell id="2Kqc3Tl-5rJN90L1hJIf-14" value="" style="endArrow=none;html=1;rounded=0;" parent="1" edge="1">
          <mxGeometry width="50" height="50" relative="1" as="geometry">
            <mxPoint x="1750" y="1090" as="sourcePoint" />
            <mxPoint x="1750" y="1000" as="targetPoint" />
          </mxGeometry>
        </mxCell>
        <mxCell id="2Kqc3Tl-5rJN90L1hJIf-15" value="&lt;h1&gt;AREF&lt;/h1&gt;" style="text;html=1;strokeColor=none;fillColor=none;spacing=5;spacingTop=-20;whiteSpace=wrap;overflow=hidden;rounded=0;align=center;" parent="1" vertex="1">
          <mxGeometry x="1730" y="957.5" width="90" height="35" as="geometry" />
        </mxCell>
        <mxCell id="pgA705rm67ZzTTxPCtIC-2" value="&lt;font style=&quot;font-size: 21px;&quot;&gt;&lt;b&gt;LIDAR&lt;/b&gt;&lt;/font&gt;" style="ellipse;whiteSpace=wrap;html=1;aspect=fixed;" vertex="1" parent="1">
          <mxGeometry x="1730" y="220" width="80" height="80" as="geometry" />
        </mxCell>
        <mxCell id="pgA705rm67ZzTTxPCtIC-3" value="&lt;font size=&quot;1&quot;&gt;&lt;b style=&quot;font-size: 21px;&quot;&gt;RASPBERRY PI 3&lt;/b&gt;&lt;/font&gt;" style="rounded=0;whiteSpace=wrap;html=1;" vertex="1" parent="1">
          <mxGeometry x="1190" y="230" width="190" height="60" as="geometry" />
        </mxCell>
        <mxCell id="pgA705rm67ZzTTxPCtIC-6" value="&lt;span style=&quot;font-size: 21px;&quot;&gt;&lt;b&gt;USB MODUL&lt;/b&gt;&lt;/span&gt;" style="rounded=0;whiteSpace=wrap;html=1;" vertex="1" parent="1">
          <mxGeometry x="1450" y="230" width="110" height="60" as="geometry" />
        </mxCell>
        <mxCell id="pgA705rm67ZzTTxPCtIC-7" value="" style="endArrow=none;html=1;rounded=0;exitX=1;exitY=0.5;exitDx=0;exitDy=0;entryX=0;entryY=0.5;entryDx=0;entryDy=0;" edge="1" parent="1" source="pgA705rm67ZzTTxPCtIC-3" target="pgA705rm67ZzTTxPCtIC-6">
          <mxGeometry width="50" height="50" relative="1" as="geometry">
            <mxPoint x="1470" y="130" as="sourcePoint" />
            <mxPoint x="1520" y="80" as="targetPoint" />
          </mxGeometry>
        </mxCell>
        <mxCell id="pgA705rm67ZzTTxPCtIC-8" value="" style="endArrow=none;html=1;rounded=0;exitX=1;exitY=0.5;exitDx=0;exitDy=0;entryX=0;entryY=0.5;entryDx=0;entryDy=0;" edge="1" parent="1" source="pgA705rm67ZzTTxPCtIC-6" target="pgA705rm67ZzTTxPCtIC-2">
          <mxGeometry width="50" height="50" relative="1" as="geometry">
            <mxPoint x="1590" y="250" as="sourcePoint" />
            <mxPoint x="1640" y="200" as="targetPoint" />
          </mxGeometry>
        </mxCell>
      </root>
    </mxGraphModel>
  </diagram>
</mxfile>
